<?xml version="1.0" encoding="utf-8"?>
<!DOCTYPE svg PUBLIC "-//W3C//DTD SVG 1.1//EN" "http://www.w3.org/Graphics/SVG/1.1/DTD/svg11.dtd">
<!-- exported from Silhouette Studio® Business Edition V4.5.735ssbe -->
<svg version="1.1" xmlns="http://www.w3.org/2000/svg" xmlns:xlink="http://www.w3.org/1999/xlink" width="106.934mm" height="106.934mm" viewBox="0 0 106.934 106.934">
<defs>
<path id="path_56cc2cbf65be7c4520ac8ec97cc0d0ae" d="M 34.50778 105.1924 C 34.40493 105.2357 34.26725 105.2938 34.20184 105.3214 C 34.05236 105.3845 33.59817 105.5617 33.40421 105.6326 C 33.32343 105.6621 33.19655 105.7085 33.12237 105.7356 C 32.95325 105.7976 32.42043 105.9756 32.17973 106.0505 C 32.00644 106.1045 31.88943 106.1391 31.65498 106.2059 C 31.59727 106.2224 31.52171 106.2444 31.48708 106.2548 C 31.40555 106.2795 30.72035 106.4506 30.58809 106.4794 C 28.99728 106.8253 27.6871 106.9579 26.20444 106.9235 C 25.35619 106.9037 24.50056 106.8138 23.7596 106.6668 C 23.55837 106.6268 23.07726 106.5115 23.0068 106.4863 C 22.98754 106.4794 22.92461 106.4599 22.86692 106.4431 C 22.04488 106.2036 21.23813 105.8963 20.61389 105.5848 C 19.81988 105.1887 19.27103 104.7926 18.99552 104.4167 C 18.91576 104.3081 18.76939 104.0627 18.72015 103.9554 C 18.67201 103.8506 18.58424 103.5901 18.59261 103.5768 C 18.59569 103.5717 18.81403 103.5633 19.0778 103.5582 C 20.75851 103.5254 22.12669 103.4049 23.23771 103.192 C 23.4341 103.1543 23.55798 103.1296 23.61549 103.1164 C 23.64629 103.1093 23.77225 103.081 23.89539 103.0533 C 24.77037 102.8569 25.39274 102.6302 26.27433 102.187 C 26.77386 101.9359 26.96539 101.8289 27.42182 101.5461 C 27.60416 101.4331 28.25139 101.0039 28.32195 100.9494 C 28.34251 100.9334 28.40663 100.8867 28.46443 100.8455 C 28.52214 100.8044 28.59138 100.754 28.61829 100.7338 C 28.64528 100.7134 28.72782 100.6516 28.80182 100.5963 C 29.02343 100.4307 29.16769 100.319 29.22849 100.2661 C 29.26003 100.2386 29.34193 100.169 29.41043 100.1113 C 29.67998 99.88458 29.91302 99.66714 30.23637 99.34077 C 30.54556 99.02844 30.65044 98.91592 30.89281 98.63615 C 30.99807 98.51471 31.33463 98.09166 31.41011 97.98602 C 31.42547 97.96454 31.48356 97.88405 31.53921 97.80725 C 32.33434 96.70958 33.00307 95.36993 33.46657 93.94655 C 33.92699 92.53256 34.22753 90.92711 34.34843 89.23564 C 34.37049 88.92656 34.40287 88.24838 34.42539 87.62112 C 34.45798 86.71613 34.46886 86.23111 34.48161 85.11887 C 34.49938 83.57451 34.50005 77.42786 34.48254 77.41698 C 34.47529 77.41254 34.40474 77.48923 34.32572 77.58742 C 33.94581 78.05978 33.54456 78.4857 33.11726 78.87038 C 32.90729 79.05931 32.58544 79.32658 32.43867 79.43379 C 32.40394 79.459 32.34103 79.50511 32.29868 79.53615 C 31.93113 79.80589 31.32979 80.14967 30.87865 80.3481 C 30.07731 80.70038 29.35328 80.9165 28.38747 81.09178 C 28.09541 81.14476 27.80853 81.18289 27.33088 81.23247 C 26.81666 81.28574 25.66451 81.31194 25.11771 81.28285 C 24.31402 81.24007 23.55779 81.1297 22.84589 80.95146 C 22.73811 80.92441 22.62166 80.89371 22.58695 80.88319 C 22.55233 80.8727 22.47675 80.85045 22.41904 80.83372 C 21.65259 80.61186 21.02713 80.32838 20.43938 79.93626 C 19.91444 79.5862 19.41696 79.12036 19.05919 78.64391 C 18.63897 78.08415 18.23409 77.36418 17.976 76.71758 C 17.47984 75.47412 17.22269 74.17624 17.15762 72.58678 C 17.14868 72.36827 17.14356 69.32042 17.14356 64.16449 C 17.14347 55.58125 17.14162 55.84503 17.20564 55.39276 C 17.29519 54.76103 17.51976 54.09407 17.8163 53.57912 C 18.27562 52.78169 18.90302 52.13051 19.7672 51.55421 C 20.04475 51.36917 20.23759 51.25473 20.57191 51.07646 C 20.62189 51.04979 20.74783 50.98239 20.85179 50.92671 C 21.24642 50.71498 21.354 50.65927 21.53745 50.57169 C 22.06453 50.31999 22.84001 49.89394 23.3427 49.57974 C 23.39268 49.5484 23.46192 49.50591 23.49654 49.48517 C 23.56458 49.44444 24.07464 49.10458 24.1893 49.02361 C 24.43707 48.84853 24.70995 48.6274 24.93147 48.42236 C 25.19272 48.18034 25.5892 47.76044 25.74958 47.55579 C 26.01335 47.21927 26.23682 46.90703 26.44373 46.58604 L 26.48431 46.52319 L 26.49213 59.21603 C 26.49817 68.94112 26.50394 71.95953 26.51689 72.1255 C 26.58073 72.94348 26.6629 73.43825 26.80625 73.86586 C 26.91821 74.19986 27.10426 74.50244 27.34123 74.73573 C 27.72768 75.11623 28.20651 75.31166 29.01273 75.41785 C 29.42168 75.47176 30.03951 75.47794 30.42642 75.43208 C 30.74305 75.39453 31.0677 75.3192 31.31945 75.22481 C 31.83852 75.03049 32.22867 74.76855 32.69787 74.29973 C 33.18994 73.80795 33.54531 73.28455 33.84193 72.61479 C 34.13928 71.94307 34.34201 71.22926 34.43936 70.51096 C 34.45602 70.38794 34.47398 70.2558 34.47929 70.21741 C 34.48739 70.15854 34.49401 70.14684 34.52117 70.14291 C 34.53885 70.14041 34.55598 70.13092 34.55906 70.12189 C 34.56223 70.11298 34.57459 70.00494 34.5865 69.88193 C 34.76847 68.01492 35.21996 66.23743 35.93764 64.5629 C 36.49097 63.272 37.19638 62.05109 38.03999 60.92422 C 38.36622 60.48833 38.53522 60.28235 39.08398 59.65192 C 39.32942 59.37009 40.07855 58.62634 40.45244 58.29337 C 40.72748 58.04845 41.01869 57.80371 41.28134 57.59665 C 41.64255 57.31184 41.69832 57.26987 42.14439 56.94656 C 42.27658 56.85081 42.72455 56.55038 42.97594 56.38904 C 43.049 56.34209 43.12383 56.29187 43.14215 56.27737 L 43.17555 56.25098 L 42.98227 56.07001 C 42.36128 55.48849 41.40707 54.5387 41.10582 54.20219 C 41.05295 54.14323 40.92758 54.0049 40.82715 53.8947 C 39.74452 52.70685 38.70705 51.32689 37.92831 50.03889 C 37.44238 49.23497 37.00763 48.39082 36.65907 47.57426 C 36.60062 47.4373 36.55278 47.32172 36.55278 47.31735 C 36.55278 47.31297 36.5364 47.27098 36.51639 47.22385 C 36.49628 47.17679 36.47022 47.11308 36.45848 47.08231 C 36.44668 47.05153 36.42937 47.00752 36.42005 46.98447 C 36.39474 46.92235 36.35007 46.80234 36.30809 46.68398 C 36.28771 46.62631 36.26461 46.56364 36.25698 46.54486 C 36.21752 46.44826 36.02393 45.84534 35.95143 45.59355 C 35.93487 45.53589 35.91271 45.4604 35.9022 45.42581 C 35.89168 45.39124 35.86646 45.29686 35.84617 45.21616 C 35.82588 45.13544 35.79395 45.01587 35.77525 44.95059 C 35.73504 44.80981 35.59924 44.23952 35.51129 43.8421 C 35.4091 43.38074 35.3606 43.13962 35.24473 42.51822 C 35.06704 41.56589 34.89877 40.36971 34.77657 39.19124 C 34.76186 39.04907 34.74279 38.85396 34.73422 38.7579 C 34.72566 38.66177 34.71254 38.52025 34.70509 38.44335 C 34.65175 37.89466 34.58252 36.79896 34.54529 35.91321 C 34.49623 34.74831 34.49401 34.21503 34.49837 24.77903 L 34.50275 15.46204 L 34.62812 15.67172 C 34.85522 16.05155 35.18954 16.54103 35.45396 16.88088 C 35.63982 17.11985 35.74081 17.24229 35.8847 17.40343 C 35.925 17.44853 35.9707 17.50339 35.98605 17.52525 C 36.02542 17.58112 36.74777 18.29616 36.87463 18.40494 C 36.93242 18.45441 36.98278 18.49841 36.9866 18.50268 C 36.9905 18.50687 37.07547 18.5752 37.17552 18.65452 C 37.27557 18.73383 37.37043 18.80917 37.38624 18.82182 C 37.40205 18.83455 37.43669 18.86038 37.46322 18.87926 C 37.48976 18.89812 37.51765 18.91879 37.5254 18.92511 C 37.54884 18.94436 37.84762 19.16221 37.94832 19.23362 C 38.00044 19.27055 38.07079 19.32093 38.10467 19.34549 C 38.37206 19.53945 39.0517 19.99282 39.40752 20.21469 C 39.43451 20.23151 39.5006 20.27392 39.55447 20.30898 C 39.60838 20.34403 39.67126 20.38308 39.69437 20.39581 C 39.71742 20.40865 39.76938 20.43916 39.80977 20.4638 C 39.85007 20.48834 39.93512 20.53921 39.99869 20.57677 C 40.06216 20.61433 40.13628 20.65906 40.16315 20.67617 C 40.19014 20.69327 40.24368 20.72479 40.28212 20.74619 C 40.32063 20.76749 40.39612 20.81024 40.45001 20.84102 C 40.50391 20.87188 40.60155 20.92666 40.66698 20.96283 C 40.90236 21.09281 41.12265 21.21668 41.34213 21.34241 C 41.39798 21.37431 41.48137 21.42199 41.52754 21.44821 C 41.57379 21.47453 41.64619 21.51728 41.68852 21.54323 C 41.7308 21.56917 41.79381 21.60673 41.82841 21.62655 C 41.9052 21.67062 41.97231 21.71088 42.04184 21.75458 C 42.07069 21.77262 42.12106 21.80433 42.15382 21.82487 C 42.18648 21.84541 42.23524 21.87583 42.26224 21.89247 C 42.28914 21.90912 42.35847 21.95311 42.41618 21.9902 C 42.47389 22.02729 42.54312 22.07146 42.57011 22.08829 C 42.65828 22.14343 43.1068 22.44191 43.19977 22.50746 C 43.24983 22.54271 43.34114 22.60603 43.40276 22.64815 C 43.46428 22.69036 43.55252 22.75284 43.59869 22.78716 C 43.64485 22.82155 43.69838 22.86043 43.71764 22.87373 C 43.74593 22.89316 43.86821 22.9839 43.93449 23.03468 C 43.96716 23.05959 44.16495 23.22212 44.24239 23.28759 C 44.36459 23.39088 44.88411 23.91392 44.99823 24.04865 C 45.12053 24.19296 45.26004 24.36713 45.30341 24.42952 C 45.31671 24.44877 45.34669 24.48968 45.36996 24.52038 C 45.42068 24.5876 45.64247 24.91888 45.68845 24.99643 C 45.70639 25.02674 45.7347 25.07362 45.75127 25.10048 C 46.0481 25.58325 46.28467 26.17184 46.43135 26.79195 C 46.50813 27.11674 46.58122 27.55058 46.61378 27.87528 C 46.62227 27.95989 46.63629 28.09192 46.64487 28.16882 C 46.65587 28.2673 46.6633 29.76917 46.6701 33.24329 C 46.67867 37.62501 46.6823 38.21146 46.70268 38.47833 C 46.75397 39.14956 46.82477 39.70458 46.92371 40.21172 C 46.98999 40.55148 47.13788 41.18898 47.17343 41.28809 C 47.18033 41.30734 47.2059 41.39537 47.23029 41.48381 C 47.29228 41.70856 47.42183 42.11069 47.50943 42.35051 C 47.6268 42.67157 47.61833 42.64943 47.76045 43.00395 C 47.77505 43.04051 47.81035 43.12383 47.83882 43.18918 C 47.8674 43.25453 47.90257 43.338 47.91718 43.37453 C 47.97397 43.51717 48.29126 44.1322 48.39111 44.29355 C 48.39827 44.30508 48.43103 44.35855 48.46399 44.41241 C 48.53984 44.53635 48.81068 44.93739 48.87463 45.0204 C 48.90123 45.05499 48.93401 45.09906 48.94751 45.1183 C 48.961 45.13747 49.00986 45.19923 49.05612 45.25539 C 49.10237 45.31163 49.15907 45.38203 49.18214 45.41187 C 49.29533 45.55815 49.85236 46.13435 49.97736 46.2345 C 50.00946 46.26016 50.06093 46.30421 50.09174 46.3324 C 50.14256 46.37898 50.40048 46.58678 50.53954 46.69334 C 50.65419 46.78111 51.12794 47.09764 51.2253 47.15149 C 51.24838 47.16431 51.31444 47.20262 51.37215 47.23663 C 51.52197 47.32507 51.99789 47.56396 52.1628 47.63361 C 52.23979 47.66606 52.32484 47.70233 52.35175 47.71414 C 52.37865 47.72594 52.42278 47.74387 52.44977 47.754 C 52.47667 47.76405 52.53334 47.7856 52.57568 47.80188 C 52.67761 47.84103 52.99059 47.94528 53.11792 47.98238 C 53.17368 47.99864 53.26192 48.02431 53.31386 48.03937 C 53.4045 48.06575 53.47467 48.0827 53.68817 48.12984 C 54.41042 48.28929 55.25198 48.3121 55.98318 48.19215 C 56.961 48.03166 57.90178 47.67397 58.85886 47.09875 C 59.22704 46.87749 59.72453 46.51089 60.05075 46.22052 C 60.90898 45.4565 61.59029 44.52173 62.08691 43.42685 C 62.72754 42.01471 63.14543 40.44406 63.29575 38.88372 C 63.34937 38.32796 63.34966 38.29893 63.37085 31.87326 C 63.38232 28.42889 63.39813 25.25848 63.40622 24.82796 C 63.42297 23.92899 63.45499 23.29512 63.51866 22.60528 C 63.52638 22.52066 63.53905 22.38193 63.54659 22.29694 C 63.56071 22.13924 63.63258 21.4931 63.65845 21.29124 C 63.73627 20.68471 63.88768 19.6833 63.93851 19.43903 C 63.94568 19.40444 63.97108 19.26608 63.99492 19.13153 C 64.03989 18.87771 64.19539 18.09143 64.2464 17.85943 C 64.2625 17.78645 64.28131 17.69829 64.28819 17.6637 C 64.3768 17.21617 64.687 15.96111 64.92732 15.07766 C 65.63393 12.48 66.52455 10.33023 67.66562 8.467789 C 67.77536 8.288696 68.23579 7.591782 68.36899 7.403214 C 68.58778 7.093483 68.95135 6.625313 69.22758 6.297646 C 69.61635 5.83654 69.96062 5.470467 70.20596 5.257454 C 70.28554 5.188286 70.38681 5.100212 70.43092 5.061813 C 70.47495 5.023315 70.55713 4.95414 70.61354 4.90802 C 70.66995 4.861893 70.73863 4.804535 70.76627 4.780548 C 70.82939 4.725784 71.08913 4.519562 71.25732 4.390762 C 71.32759 4.336937 71.40968 4.274055 71.43983 4.250984 C 71.46989 4.227936 71.52007 4.190155 71.55116 4.167099 C 71.58234 4.144035 71.63261 4.106316 71.66277 4.083244 C 71.69301 4.060188 71.76057 4.011124 71.8129 3.974274 C 71.8652 3.937439 71.95845 3.871681 72.01997 3.828171 C 72.17224 3.720604 72.69719 3.37249 72.83698 3.28643 C 72.89943 3.248001 72.99612 3.187714 73.05197 3.152496 C 73.14876 3.091393 73.44223 2.91748 73.5313 2.868423 C 73.55438 2.855721 73.59535 2.832397 73.62225 2.816658 C 73.67073 2.788307 73.83853 2.694611 74.04208 2.582237 C 74.20581 2.491821 74.96797 2.109886 75.15459 2.024658 C 75.50725 1.86367 75.70819 1.7761 76.05722 1.631325 C 76.15337 1.591438 76.26048 1.546791 76.2951 1.532196 C 76.32973 1.517578 76.41479 1.48391 76.48404 1.457359 C 76.55331 1.430786 76.66666 1.387131 76.7359 1.360344 C 76.80515 1.333534 76.90901 1.294708 76.96681 1.27404 C 77.02452 1.253372 77.09377 1.227951 77.12076 1.217567 C 77.2021 1.186211 77.3593 1.130455 77.47052 1.093521 C 77.52832 1.074371 77.62903 1.039917 77.69449 1.01693 C 77.7599 0.9939423 77.89848 0.9490128 78.00235 0.917038 C 78.10622 0.8850555 78.22591 0.8471985 78.26826 0.8328934 C 78.31052 0.8186111 78.37978 0.797699 78.4221 0.7864151 C 78.52077 0.7601776 78.78827 0.6838989 78.86998 0.6587067 C 78.96278 0.6301117 79.63513 0.4632492 79.82155 0.4225769 C 80.78218 0.212944 81.58307 0.0961609 82.58537 0.0195694 C 82.90962 -0.0052032 84.42383 -0.0052643 84.7683 0.019516 C 85.69904 0.0864029 86.35513 0.1835251 87.06331 0.3591385 C 87.18646 0.389679 87.30296 0.4202652 87.32224 0.4271622 C 87.34138 0.4340439 87.40442 0.4531708 87.46213 0.4697037 C 87.51981 0.4862366 87.58286 0.5049591 87.60211 0.5113373 C 87.62138 0.5177689 87.72206 0.5495605 87.82597 0.5820465 C 88.0538 0.6532364 88.1723 0.6925812 88.32979 0.749321 C 88.39522 0.7728958 88.47713 0.8019104 88.51175 0.8137894 C 88.69769 0.8776016 88.95242 0.97892 89.20735 1.090439 C 89.27055 1.11808 89.32481 1.140671 89.328 1.140671 C 89.33711 1.140671 89.68781 1.305031 89.76411 1.345161 C 89.80266 1.365379 89.90019 1.416634 89.98109 1.459007 C 90.06184 1.50135 90.13744 1.543854 90.14897 1.553406 C 90.16052 1.562973 90.19829 1.585014 90.23289 1.602402 C 90.31406 1.643127 90.52563 1.77861 90.72267 1.915993 C 90.79248 1.964592 90.84457 2.003716 90.94652 2.083847 C 91.06828 2.179489 91.32794 2.461166 91.41084 2.587479 C 91.56685 2.82502 91.71481 3.143044 91.73856 3.291725 C 91.74742 3.346497 91.74669 3.347572 91.70044 3.354713 C 91.67445 3.358704 91.37622 3.365234 91.03757 3.369263 C 89.4247 3.388313 87.86549 3.547493 86.64354 3.817825 C 86.55112 3.838257 86.43631 3.863541 86.38818 3.874031 C 86.34007 3.884491 86.24243 3.908875 86.17123 3.928154 C 86.10002 3.947456 85.98198 3.979385 85.90884 3.999168 C 85.5705 4.09063 85.1178 4.247993 84.78236 4.390762 C 84.36792 4.567108 83.55946 4.968445 83.33395 5.109795 C 83.32242 5.116951 83.2437 5.162224 83.15909 5.210388 C 83.07439 5.258461 82.98941 5.308388 82.97014 5.32122 C 82.95088 5.334145 82.8754 5.381126 82.80222 5.425667 C 82.30197 5.730286 81.70546 6.145622 81.2979 6.473198 C 79.87109 7.619957 78.74834 9.013206 77.88432 10.70921 C 77.65213 11.16502 77.4201 11.67474 77.29555 12.00223 C 77.26495 12.08294 77.22128 12.19156 77.19456 12.25385 C 77.18303 12.28082 77.16217 12.33745 77.14832 12.37965 C 77.13445 12.42206 77.10344 12.51003 77.07944 12.57539 C 77.02238 12.73049 76.89441 13.1132 76.85512 13.24644 C 76.83818 13.30409 76.8127 13.38583 76.79845 13.42813 C 76.78421 13.47044 76.76233 13.54279 76.74977 13.58891 C 76.7372 13.63505 76.71126 13.7294 76.69197 13.79859 C 76.63716 13.99553 76.49159 14.56842 76.46191 14.7037 C 76.4471 14.77093 76.42226 14.88416 76.40652 14.9553 C 76.28616 15.49999 76.14928 16.30057 76.06514 16.95079 C 75.94452 17.88267 75.78107 19.87761 75.68649 21.57085 C 75.57808 23.51427 75.53992 25.19077 75.53954 28.01958 C 75.53935 30.34583 75.51413 31.8318 75.46173 32.60023 C 75.39017 33.65157 75.24841 34.678 75.05006 35.58125 C 75.03442 35.65227 75.00958 35.76553 74.99478 35.83277 C 74.90794 36.22842 74.71622 36.92725 74.58731 37.31805 C 74.56573 37.38342 74.54161 37.45895 74.5338 37.48582 C 74.52588 37.51268 74.49367 37.60706 74.46213 37.6955 C 74.43059 37.78392 74.39287 37.89086 74.37827 37.93317 C 74.36366 37.97548 74.33824 38.04465 74.32178 38.08694 C 74.30539 38.12917 74.28648 38.17956 74.27998 38.19872 C 74.26851 38.23238 74.24127 38.30241 74.18207 38.45034 C 74.16663 38.48884 74.14204 38.55009 74.12744 38.58664 C 74.06955 38.73141 73.95515 38.9995 73.90527 39.10735 C 73.44867 40.09531 73.10428 40.72226 72.58856 41.5047 C 71.94032 42.48848 71.23256 43.35249 70.35489 44.23174 C 69.8118 44.77579 69.39929 45.14481 68.68944 45.72119 C 68.55475 45.83057 67.9496 46.2847 67.79668 46.39127 C 67.73666 46.43301 67.6579 46.48927 67.62169 46.51614 C 67.58559 46.54292 67.39227 46.67392 67.19217 46.80708 C 66.99205 46.94025 66.82834 47.05786 66.82834 47.06836 C 66.82834 47.07887 66.86668 47.12086 66.9137 47.16179 C 67.18221 47.39536 67.57303 47.76965 68.12968 48.32652 C 68.68329 48.88014 69.17592 49.3933 69.26266 49.50674 C 69.27776 49.52646 69.32578 49.58038 69.36932 49.6265 C 69.4129 49.67262 69.46957 49.73546 69.49527 49.76624 C 69.52095 49.79701 69.57056 49.85423 69.60556 49.89339 C 69.64046 49.93254 69.71315 50.01666 69.76694 50.08046 C 69.82083 50.14413 69.89641 50.23286 69.93494 50.27759 C 69.97337 50.32231 70.03639 50.39769 70.07483 50.4453 C 70.11336 50.49283 70.17004 50.56239 70.20085 50.59978 C 70.23157 50.63715 70.28192 50.69933 70.31273 50.73801 C 70.34354 50.77669 70.38951 50.83284 70.41492 50.86288 C 70.44032 50.89291 70.47495 50.93672 70.49188 50.96025 C 70.50883 50.98369 70.58878 51.08846 70.66957 51.19305 C 70.75035 51.29768 70.82593 51.39709 70.83746 51.41402 C 70.84911 51.43085 70.90271 51.50418 70.9567 51.577 C 71.01067 51.6498 71.06578 51.72502 71.07918 51.74426 C 71.09248 51.76352 71.1501 51.84525 71.20706 51.92595 C 71.3262 52.09464 71.6004 52.50031 71.69609 52.64935 C 71.73184 52.70515 71.78851 52.79321 71.82201 52.84509 C 71.85542 52.89699 71.89359 52.95836 71.90671 52.98141 C 71.91974 53.0045 71.95193 53.05795 71.9781 53.10025 C 72.00424 53.14256 72.04195 53.20544 72.06197 53.24002 C 72.08189 53.2746 72.12088 53.3407 72.14861 53.38684 C 72.20958 53.48819 72.28346 53.61723 72.39273 53.81313 C 72.49846 54.00266 72.92299 54.84283 73.00003 55.01532 C 73.03279 55.08832 73.08931 55.21422 73.1257 55.29492 C 73.20407 55.46861 73.27916 55.64082 73.31471 55.72824 C 73.32887 55.76292 73.38544 55.90128 73.44055 56.03583 C 73.89864 57.15462 74.28735 58.40399 74.5649 59.64932 C 74.68365 60.18221 74.80882 60.83438 74.8602 61.18698 C 74.87247 61.27159 74.88858 61.37537 74.89595 61.41766 C 74.94127 61.67764 75.03687 62.48177 75.09111 63.06021 C 75.10693 63.22937 75.12611 63.43382 75.13374 63.51453 C 75.19154 64.12811 75.27325 65.25655 75.32193 66.11459 C 75.38531 67.22955 75.41212 67.89383 75.47224 69.83997 C 75.49144 70.46063 75.50539 90.99707 75.48659 90.99707 C 75.48018 90.99707 75.42506 90.91364 75.3642 90.81183 C 75.26442 90.64464 74.86626 90.04385 74.72729 89.85074 C 74.61292 89.69173 74.31889 89.3203 74.17418 89.15182 C 73.40753 88.25946 72.85521 87.78754 71.42989 86.80695 C 71.25417 86.68607 71.07419 86.56857 70.63457 86.28757 C 70.35013 86.10577 69.46864 85.58725 69.44408 85.58725 C 69.44052 85.58725 69.41411 85.57253 69.38535 85.55458 C 69.35667 85.53664 69.28592 85.49757 69.22824 85.46791 C 69.17053 85.43808 69.10117 85.40031 69.0743 85.38387 C 69.04739 85.36751 68.99695 85.33803 68.96233 85.31851 C 68.73448 85.19017 68.24605 84.90182 68.15073 84.83943 C 68.12373 84.82175 68.00729 84.74905 67.8918 84.67792 C 67.53113 84.4554 66.97568 84.08348 66.45186 83.71352 C 66.04001 83.42274 65.79123 83.21474 65.44937 82.87526 C 65.30605 82.73299 65.16241 82.58704 65.13013 82.55077 C 64.97078 82.37178 64.73187 82.07059 64.61153 81.8967 C 64.30325 81.45158 64.07048 81.04341 63.92502 80.69295 C 63.89188 80.6131 63.85678 80.52895 63.84712 80.50587 C 63.83742 80.48282 63.80374 80.38722 63.77228 80.29341 C 63.56053 79.66316 63.43925 79.00754 63.37643 78.1534 C 63.36537 78.00203 63.35681 76.80006 63.34889 74.28523 C 63.33223 68.97182 63.31334 65.11433 63.30365 65.01027 C 63.29892 64.96024 63.28839 64.82188 63.2802 64.70267 C 63.21431 63.74196 63.04565 62.76927 62.78198 61.83005 C 62.64796 61.35229 62.41219 60.66425 62.25287 60.28543 C 62.23511 60.24312 62.1812 60.11516 62.13307 60.00107 C 61.99747 59.67917 61.74852 59.18451 61.59726 58.93643 C 61.4906 58.76135 61.46072 58.71487 61.33702 58.53104 C 60.84422 57.79871 60.25429 57.18005 59.52368 56.62961 C 58.76189 56.05562 57.75279 55.54263 56.89975 55.29559 C 56.84196 55.27885 56.76639 55.25664 56.73177 55.24612 C 56.6131 55.21024 56.44475 55.17081 56.22807 55.1283 C 54.90903 54.86934 53.60675 55.02676 52.22722 55.61182 C 51.75209 55.8134 51.07925 56.19304 50.68649 56.48129 C 50.64413 56.51237 50.58131 56.55847 50.54678 56.58386 C 50.51216 56.60915 50.39888 56.69806 50.29494 56.78125 C 49.48354 57.43102 48.82399 58.21675 48.28632 59.1741 C 48.18718 59.35066 47.93625 59.85576 47.88992 59.97226 C 47.87492 60.0099 47.83939 60.09425 47.8109 60.15952 C 47.76363 60.26794 47.74016 60.32549 47.68562 60.4671 C 47.6752 60.49396 47.65306 60.55063 47.63629 60.59293 C 47.54675 60.81821 47.38582 61.27818 47.32811 61.47354 C 47.31108 61.5312 47.28783 61.6067 47.27647 61.64139 C 47.22791 61.78923 47.07004 62.3914 47.01808 62.62683 C 46.88222 63.24284 46.80142 63.756 46.7332 64.4371 C 46.67848 64.98309 46.68013 64.75885 46.67029 72.83144 C 46.66368 78.21588 46.65587 80.6954 46.64468 81.00214 C 46.57423 82.93144 46.52957 83.82916 46.43872 85.13986 C 46.32268 86.81216 46.23674 87.6996 46.09554 88.68356 C 46.041 89.06342 45.92813 89.76521 45.90103 89.89268 C 45.89369 89.92726 45.8744 90.02789 45.8582 90.11633 C 45.80553 90.403 45.72754 90.78357 45.64954 91.13326 C 45.63373 91.20439 45.60869 91.31767 45.59387 91.38489 C 45.56354 91.52315 45.35078 92.36346 45.28685 92.5976 C 45.24756 92.74135 45.2283 92.80983 45.1599 93.04831 C 45.145 93.1003 45.12257 93.18048 45.11011 93.22668 C 45.09753 93.2728 45.07565 93.34515 45.06142 93.38737 C 45.04727 93.42967 45.02168 93.51143 45.00465 93.56918 C 44.91267 93.88086 44.63301 94.71313 44.5162 95.02295 C 44.49155 95.0883 44.46605 95.1575 44.45935 95.17676 C 44.44778 95.21051 44.41978 95.28239 44.36133 95.42836 C 44.34589 95.46678 44.32147 95.52809 44.30696 95.56456 C 44.29254 95.6011 44.26051 95.67815 44.23586 95.73581 C 44.21118 95.79347 44.17656 95.87534 44.15878 95.91762 C 44.12816 95.99062 44.04945 96.16801 43.96094 96.36322 C 43.87074 96.56192 43.58705 97.12782 43.46243 97.35738 C 43.15585 97.92215 42.79555 98.50322 42.43637 99.01175 C 42.38295 99.08751 42.32991 99.1629 42.31865 99.17946 C 42.20325 99.34833 41.82414 99.83391 41.58559 100.1182 C 40.96954 100.8526 40.13644 101.6762 39.4145 102.2647 C 39.35298 102.3149 39.25217 102.3971 39.19065 102.4472 C 39.07655 102.5402 38.57731 102.9151 38.40447 103.0376 C 37.99439 103.3286 37.57675 103.6005 37.17552 103.8381 C 37.07547 103.8974 36.97161 103.9596 36.94462 103.9766 C 36.8546 104.0331 36.49674 104.2315 36.18198 104.3994 C 35.69379 104.6599 35.06519 104.9576 34.50778 105.1924 Z M 28.40142 39.43316 C 28.40858 39.4526 28.38234 39.48496 28.28768 39.57301 C 28.16828 39.68412 27.31498 40.4807 25.99445 41.71393 C 25.6404 42.04457 25.06112 42.58546 24.70707 42.91602 C 24.35301 43.24648 23.92478 43.64656 23.75548 43.8051 C 23.46425 44.07764 21.93499 45.5042 21.85856 45.5746 L 21.82281 45.6075 L 21.64431 45.44333 C 21.22372 45.0563 21.14879 44.98694 20.89386 44.74789 C 20.74625 44.60942 20.56029 44.43646 20.48061 44.36339 C 20.40095 44.29039 20.22485 44.12685 20.08923 43.99994 C 19.95362 43.87311 19.76786 43.70012 19.67628 43.61551 C 19.58479 43.53099 19.40859 43.36745 19.2849 43.25206 C 18.94749 42.93768 18.71928 42.72568 18.51751 42.53915 C 18.41773 42.44691 18.21511 42.25818 18.0674 42.1198 C 17.91961 41.98145 17.73355 41.80841 17.65388 41.73541 C 17.57411 41.66234 17.39803 41.49878 17.26251 41.37196 C 17.1269 41.24513 16.94114 41.07211 16.84954 40.98756 C 16.67912 40.83006 16.3716 40.54449 16.0519 40.24666 C 15.95287 40.15433 15.77222 39.98639 15.65048 39.87341 C 15.52874 39.76036 15.37563 39.61754 15.3102 39.55598 L 15.19125 39.44404 L 15.31038 39.3282 C 15.37581 39.26441 15.53916 39.1115 15.67338 38.98849 C 15.8075 38.86557 15.97763 38.70826 16.05154 38.63908 C 16.12534 38.56991 16.3018 38.40636 16.44374 38.27561 C 16.58559 38.14488 16.76213 37.98133 16.83595 37.91214 C 16.90975 37.84296 17.0798 37.68574 17.21383 37.56271 C 17.34786 37.4397 17.51781 37.28246 17.59161 37.21317 C 17.66542 37.14399 17.83547 36.98678 17.9695 36.86376 C 18.10351 36.74074 18.27357 36.58352 18.34747 36.51433 C 18.42128 36.44507 18.59113 36.2878 18.72469 36.16481 C 18.85835 36.04179 19.02812 35.88457 19.10201 35.81538 C 19.17582 35.7461 19.34596 35.58887 19.47999 35.46585 C 19.61401 35.34285 19.78394 35.1856 19.85775 35.11642 C 19.93156 35.04715 20.10161 34.88991 20.23563 34.76688 C 20.36967 34.64386 20.53961 34.48663 20.61352 34.41747 C 20.68732 34.34827 20.86379 34.18472 21.00573 34.054 C 21.14758 33.92325 21.32385 33.7597 21.39748 33.69053 C 21.471 33.62135 21.59628 33.50605 21.67585 33.43426 L 21.82058 33.30381 L 21.87094 33.35037 C 21.89857 33.37605 21.93097 33.40639 21.94279 33.41792 C 21.95461 33.42945 21.99576 33.46664 22.03429 33.50048 C 22.07273 33.53433 22.16085 33.61623 22.23011 33.68243 C 22.29945 33.74863 22.38759 33.83038 22.42602 33.86414 C 22.46455 33.8979 22.5527 33.97963 22.62194 34.04574 C 22.69119 34.11185 22.78566 34.20007 22.83192 34.24171 C 22.87808 34.28336 22.97256 34.37152 23.0418 34.43755 C 23.11105 34.50368 23.19917 34.58528 23.23771 34.61903 C 23.27614 34.6528 23.36437 34.73447 23.43362 34.80058 C 23.50286 34.86677 23.59736 34.95492 23.64352 34.99677 C 23.68969 35.03841 23.78426 35.12648 23.85368 35.1924 C 23.92311 35.25823 24.01125 35.33984 24.0496 35.37369 C 24.08794 35.40753 24.17599 35.48936 24.24524 35.55559 C 24.31448 35.62177 24.4027 35.70362 24.44116 35.73746 C 24.47968 35.77122 24.57416 35.85928 24.65122 35.93291 C 24.72829 36.00665 24.82277 36.09471 24.86111 36.12856 C 24.89957 36.1624 24.9876 36.24421 25.05695 36.31043 C 25.12617 36.37662 25.21432 36.45847 25.25285 36.49222 C 25.29129 36.52597 25.37943 36.60768 25.44877 36.67379 C 25.51802 36.73992 25.6125 36.82806 25.65865 36.86971 C 25.70481 36.91146 25.79929 36.99959 25.86853 37.06561 C 25.93776 37.13164 26.02592 37.21328 26.06446 37.24703 C 26.10288 37.28078 26.19113 37.36259 26.26036 37.42879 C 26.32961 37.495 26.41776 37.57675 26.45628 37.61061 C 26.49473 37.64445 26.58927 37.73238 26.66634 37.80612 C 26.74341 37.87976 26.83788 37.96784 26.87624 38.00169 C 26.91467 38.03561 27.00272 38.11745 27.07197 38.18364 C 27.1413 38.24986 27.22944 38.3316 27.2679 38.36535 C 27.30641 38.3991 27.39457 38.48083 27.4638 38.54694 C 27.53306 38.61307 27.62753 38.7014 27.67378 38.74315 C 27.71993 38.78498 27.81813 38.8761 27.89204 38.94575 C 27.96593 39.01538 28.10871 39.14788 28.20922 39.24021 C 28.30975 39.33245 28.39619 39.4193 28.40142 39.43316 Z" fill-rule="evenodd" fill="#FFFFFF" fill-opacity="1" stroke="#FFFFFF" stroke-opacity="1" stroke-width="0.1" stroke-linecap="butt" stroke-linejoin="miter"/>
</defs>
<g>
<use xlink:href="#path_56cc2cbf65be7c4520ac8ec97cc0d0ae"/>
</g>
</svg>